<?xml version="1.0" standalone="no"?><!DOCTYPE svg PUBLIC "-//W3C//DTD SVG 1.1//EN" "http://www.w3.org/Graphics/SVG/1.1/DTD/svg11.dtd"><svg class="icon" width="200px" height="197.68px" viewBox="0 0 1036 1024" version="1.1" xmlns="http://www.w3.org/2000/svg"><path fill="#333333" d="M476.825896 255.194146c-30.623461 0-55.466266 24.821315-55.466266 55.444776 0 30.625508 24.841781 55.4458 55.466266 55.4458 30.602995 0 55.444776-24.819269 55.444776-55.4458C532.270672 280.015462 507.428891 255.194146 476.825896 255.194146zM255.024278 255.194146c-30.602995 0-55.422264 24.821315-55.422264 55.444776 0 30.625508 24.819269 55.4458 55.422264 55.4458 30.645974 0 55.467289-24.819269 55.467289-55.4458C310.491567 280.015462 285.671275 255.194146 255.024278 255.194146zM1020.165672 640.58047c0-133.169999-114.910123-244.169045-267.37456-269.199115C737.057779 207.010751 574.832024 77.771271 377.004423 77.771271c-208.200856 0-377.004423 143.204539-377.004423 319.848679 0 87.571475 41.491996 166.920684 108.699678 224.681202-2.719948 16.319687-7.024997 46.239114-7.187703 72.967872-0.107447 20.163225-1.083681 38.508036 9.378601 47.842635 26.835182 23.983227 125.033691-27.656897 149.623739-41.207517 33.987069 9.359158 70.092381 14.725376 107.544365 15.464203 40.258912 114.228601 168.036088 197.708897 319.459822 197.708897 35.757388 0 70.186526-4.673439 102.46672-13.288654 21.106714 11.344373 108.544135 56.285934 132.351354 35.57524 9.227152-8.035 8.379854-23.760147 8.273431-41.084721-0.149403-23.065322-3.983731-48.89664-6.379291-62.856583C983.541543 783.850501 1020.165672 715.750497 1020.165672 640.58047zM355.042225 631.628588c-26.931373-1.64036-52.837392-6.255471-77.19822-13.465686-3.007497-0.448208-6.15621-0.797156-9.346879-0.972141-25.102724-1.343601-84.10042 55.898101-96.898911 48.535413-13.042037-7.503904 17.84953-86.416162 1.918699-101.343129-52.394301-42.173518-84.827991-100.521414-84.827991-164.987658 0-128.628566 129.104403-232.911654 288.315498-232.911654 145.55712 0 265.907139 87.148849 285.506523 200.370517C494.028697 377.185548 360.502587 491.055992 355.042225 631.628588zM857.453846 778.554892c-14.935154 11.881608 11.948123 76.576049 0.318248 83.092463-11.282974 6.324032-55.595202-41.889039-81.563644-40.436968-2.780323 0.153496-5.697769 0.220011-8.664334 0.223081-25.071002 6.724145-51.993165 10.388605-80.025615 10.388605-134.75817 0-244.001223-84.423785-244.001223-188.556447 0-104.109126 109.243053-188.533934 244.001223-188.533934 134.756123 0 244.0002 84.423785 244.0002 188.533934C931.518702 696.341448 903.127072 744.287437 857.453846 778.554892zM598.805018 521.331529c-24.51637 0-44.355207 19.860327-44.355207 44.355207s19.838837 44.35623 44.355207 44.35623c24.495904 0 44.35623-19.860327 44.35623-44.35623S623.301945 521.331529 598.805018 521.331529zM798.408055 521.331529c-24.495904 0-44.357254 19.860327-44.357254 44.355207s19.860327 44.35623 44.357254 44.35623c24.51637 0 44.355207-19.860327 44.355207-44.35623S822.924425 521.331529 798.408055 521.331529z" /></svg>